<svg id="Capa_1" enable-background="new 0 0 512 512" height="512" viewBox="0 0 512 512" width="512" xmlns="http://www.w3.org/2000/svg"><g><path d="m467 256c0-26.579-4.928-52.004-13.898-75.429l-17.147-15 2.853-15c-6.202-10.73-13.327-20.856-21.256-30.285l-25.761-15.286-5.171-14.714c-35.928-28.358-81.296-45.286-130.62-45.286l-20 211 20 211c101.036 0 185.47-71.02 206.143-165.857l-7.844-15 12.155-15c.355-5.003.546-10.05.546-15.143z" fill="#ff415b"/><path d="m236 120.286h181.551c-9.264-11.016-19.626-21.077-30.931-30h-150.62z" fill="#d10050"/><path d="m361 271.143v30h101.143c2.129-9.766 3.586-19.781 4.311-30z" fill="#d10050"/><path d="m438.807 150.571h-182.807l-10 15 10 15h197.102c-3.991-10.421-8.775-20.449-14.295-30z" fill="#d10050"/><path d="m316 361.429v-30h-60l-10 15 10 15z" fill="#d10050"/><path d="m256 301.143h75v-30h-75l-10 15z" fill="#d10050"/><path d="m286 421.714v-30h-30l-10 15 10 15z" fill="#d10050"/><path d="m45 256c0 5.093.191 10.14.546 15.143l12.124 14.78-7.813 15.22c2.268 10.403 5.301 20.519 9.041 30.286l17.014 14.72-2.719 15.28c6.201 10.73 13.327 20.856 21.256 30.285l24.662 14.22 6.27 15.78c35.927 28.358 81.295 45.286 130.619 45.286v-422c-116.532 0-211 94.468-211 211z" fill="#ff8859"/><path d="m0 60h30v30h-30z" fill="#ffda44"/><path d="m30 452h30v30h-30z" fill="#ece6f2"/><path d="m60 30h30v30h-30z" fill="#ffda44"/><path d="m482 90h30v30h-30z" fill="#ffb655"/><path d="m482 482h30v30h-30z" fill="#ffb655"/><path d="m422 452h30v30h-30z" fill="#cfcfe6"/><path d="m422 0h30v30h-30z" fill="#6e76e5"/><g fill="#ff415b"><path d="m151 331.429h-92.102c3.991 10.421 8.774 20.449 14.294 30h77.808z"/><path d="m136 150.571h60v30h-60z"/><path d="m181 331.429h75v30h-75z"/><path d="m226 150.571h30v30h-30z"/><path d="m45.546 271.143c.725 10.219 2.182 20.234 4.311 30h206.143v-30z"/><path d="m125.38 421.714h130.62v-30h-161.551c9.264 11.016 19.626 21.077 30.931 30z"/></g></g></svg>