<svg xmlns="http://www.w3.org/2000/svg" width="181.746" height="72" viewBox="0 0 181.746 72">
  <g id="Group_4" data-name="Group 4" transform="translate(-161.254 -71)">
    <g id="dish" transform="translate(161.254 71)">
      <ellipse id="Ellipse_1" data-name="Ellipse 1" cx="34.314" cy="34.826" rx="34.314" ry="34.826" transform="translate(1.789 1.024)" fill="#f8cf26"/>
      <circle id="Ellipse_2" data-name="Ellipse 2" cx="22.534" cy="22.534" r="22.534" transform="translate(13.056 13.316)" fill="#ff931e"/>
      <path id="Path_1" data-name="Path 1" d="M268.993,132.828a14.242,14.242,0,0,0-.4-6.6l-.77-2.536a5.508,5.508,0,0,0-10.43,0l-.77,2.536a14.243,14.243,0,0,0-.4,6.6,6.208,6.208,0,0,0,3.2,4.326l-.863,19.288a3.8,3.8,0,0,0,.96,2.954,4.192,4.192,0,0,0,5.922.265q.139-.127.265-.265a3.749,3.749,0,0,0,.96-2.874l-.868-19.37a6.206,6.206,0,0,0,3.192-4.324Zm-2.364-.418a3.8,3.8,0,0,1-2.49,2.867,1.2,1.2,0,0,0-.776,1.177l.912,20.257a1.388,1.388,0,0,1-.36,1.087,1.854,1.854,0,0,1-2.609,0,1.44,1.44,0,0,1-.353-1.166l.9-20.178a1.2,1.2,0,0,0-.776-1.177,3.8,3.8,0,0,1-2.49-2.867,11.833,11.833,0,0,1,.33-5.479l.77-2.537a3.112,3.112,0,0,1,5.837,0l.77,2.537a11.849,11.849,0,0,1,.33,5.479Z" transform="translate(-217.61 -101.962)"/>
      <path id="Path_2" data-name="Path 2" d="M148.848,132.848A1.2,1.2,0,0,0,149.2,132V121.2a1.2,1.2,0,1,0-2.4,0v10.3l-3.248,3.248a1.2,1.2,0,0,0-.352.908l1.05,21a1.635,1.635,0,0,1-.454,1.223,1.69,1.69,0,0,1-2.39.01l-.01-.01a1.635,1.635,0,0,1-.454-1.223l1.057-21a1.2,1.2,0,0,0-.35-.908L138.4,131.5V121.2a1.2,1.2,0,1,0-2.4,0V132a1.2,1.2,0,0,0,.352.848l3.223,3.224-1.024,20.471a4.054,4.054,0,1,0,8.1.395q.01-.2,0-.394l-1.024-20.471Z" transform="translate(-115.6 -102)"/>
      <path id="Path_3" data-name="Path 3" d="M161.2,132a1.2,1.2,0,0,0,1.2-1.2v-9.6a1.2,1.2,0,1,0-2.4,0v9.6A1.2,1.2,0,0,0,161.2,132Z" transform="translate(-136 -102)"/>
      <path id="Path_4" data-name="Path 4" d="M184,121.2v9.6a1.2,1.2,0,0,0,2.4,0v-9.6a1.2,1.2,0,1,0-2.4,0Z" transform="translate(-156.4 -102)"/>
      <path id="Path_5" data-name="Path 5" d="M36,0A36,36,0,1,0,72,36,36,36,0,0,0,36,0Zm0,69.6A33.6,33.6,0,1,1,69.6,36,33.6,33.6,0,0,1,36,69.6Z"/>
      <path id="Path_6" data-name="Path 6" d="M220.539,382.959a22.047,22.047,0,0,1-5.086,0,1.2,1.2,0,1,0-.28,2.384,24.308,24.308,0,0,0,5.64,0,1.2,1.2,0,0,0-.233-2.389l-.046.005Z" transform="translate(-181.996 -325.506)"/>
      <path id="Path_7" data-name="Path 7" d="M341.065,134.338a1.2,1.2,0,0,0-.144,1.691,21.6,21.6,0,0,1-1.273,29.216,1.2,1.2,0,0,0,1.694,1.7,24,24,0,0,0,1.418-32.464,1.2,1.2,0,0,0-1.69-.148Z" transform="translate(-288.4 -113.945)"/>
      <path id="Path_8" data-name="Path 8" d="M179.577,83.884a1.2,1.2,0,0,0,.424-.078,21.8,21.8,0,0,1,12.72-.78,1.2,1.2,0,1,0,.564-2.333,24.212,24.212,0,0,0-14.125.868,1.2,1.2,0,0,0,.424,2.323Z" transform="translate(-151.625 -68.023)"/>
      <path id="Path_9" data-name="Path 9" d="M82.39,157.115a21.441,21.441,0,0,1,4.129-12.706,1.2,1.2,0,1,0-1.919-1.442L84.58,143a24,24,0,0,0,2.408,31.058,1.2,1.2,0,1,0,1.7-1.7h0a21.461,21.461,0,0,1-6.3-15.24Z" transform="translate(-67.99 -121.115)"/>
    </g>
    <text id="UBB_Recipes" data-name="UBB 
Recipes" transform="translate(249 105)" fill="#2d2d2d" font-size="30" font-family="Poppins-Bold, Poppins" font-weight="700"><tspan x="0" y="0">UBB </tspan><tspan font-family="ScriptMTBold, Script MT" font-weight="400"><tspan x="0" y="28">Recipes</tspan></tspan></text>
  </g>
</svg>
