<svg xmlns="http://www.w3.org/2000/svg" width="30.224" height="30.223" viewBox="0 0 30.224 30.223">
  <g id="arrow-left" transform="translate(30.224 30.149) rotate(180)" opacity="0.8">
    <path id="Path_1" data-name="Path 1" d="M104.035,140.419a.7.7,0,1,0-.991.991l5.307,5.307H94.25a.7.7,0,1,0,0,1.406h14.094l-5.307,5.307a.7.7,0,0,0,0,.991.691.691,0,0,0,.5.2.72.72,0,0,0,.5-.2l6.5-6.5a.7.7,0,0,0,.2-.5.725.725,0,0,0-.2-.5Zm0,0" transform="translate(-88.275 -132.381)" fill="#1e4b87"/>
    <path id="Path_2" data-name="Path 2" d="M15.114-.074A15.113,15.113,0,1,0,25.8,4.354,15.111,15.111,0,0,0,15.114-.074Zm0,28.82A13.707,13.707,0,1,1,28.821,15.039,13.725,13.725,0,0,1,15.114,28.746Zm0,0" transform="translate(0 0)" fill="#1e4b87"/>
  </g>
</svg>
